#!OML:ASF H:\MichaelJackson\Top Level 1\Subject 1\Session 1\male.ASF
:FULLY-SPECIFIED
:DEGREES
823
root 17.51 16.3966 21.7753 1.31713 244.594 9.49704
lowerback 2.85279 1.75232 7.94194
upperback 2.37754 2.31092 3.12776
thorax 1.05608 1.16771 -1.25326
lowerneck -7.76369 3.69378 6.29591
upperneck 13.9271 5.47918 -10.2627
head 5.93479 2.18941 -3.8869
rclavicle -4.25399e-014 -5.48646e-014
rhumerus -50.2238 -14.6764 -61.5307
rradius 34.2809
rwrist 15.3775
rhand -25.6929 -19.7294
rfingers 7.12502
rthumb 0.842324 -409.707
lclavicle -4.25399e-014 -5.48646e-014
lhumerus -39.3242 -12.5536 93.8868
lradius 54.1415
lwrist 17.9494
lhand -9.40097 11.8044
lfingers 7.12502
lthumb 16.5604 41.1178
rfemur -22.7157 -3.28364 18.5346
rtibia 40.6495
rfoot -23.7814 -20.4505
rtoes 10.5843
lfemur -39.205 -6.34375 -2.16012
ltibia 38.1564
lfoot -20.239 -2.23226
ltoes -28.39
824
root 17.4893 16.4041 21.7851 -0.592778 247.031 11.449
lowerback 2.86251 1.69968 8.09465
upperback 2.38032 2.24399 3.19127
thorax 1.05253 1.13559 -1.27139
lowerneck -7.75417 3.50513 6.1171
upperneck 13.9743 5.20988 -9.96346
head 5.91151 2.07274 -3.78289
rclavicle 3.49861e-014 1.74931e-014
rhumerus -50.3518 -14.6717 -62.5634
rradius 34.79
rwrist 14.7501
rhand -26.3421 -19.8674
rfingers 7.12502
rthumb 0.215353 -409.847
lclavicle 3.49861e-014 1.74931e-014
lhumerus -39.0527 -12.7835 93.9015
lradius 53.9763
lwrist 17.9349
lhand -9.4794 11.9306
lfingers 7.12502
lthumb 16.4849 41.2503
rfemur -21.8981 -3.15864 19.1207
rtibia 40.0821
rfoot -24.0298 -21.3861
rtoes 11.8251
lfemur -39.7983 -5.62418 -2.32502
ltibia 38.1328
lfoot -19.7808 -1.62664
ltoes -28.1495
825
root 17.4641 16.4104 21.7946 -2.88195 249.355 13.7676
lowerback 2.85377 1.66745 8.2404
upperback 2.38422 2.20221 3.25058
thorax 1.06229 1.11652 -1.28957
lowerneck -7.76609 3.31561 5.94223
upperneck 14.0473 4.94228 -9.68552
head 5.90218 1.9541 -3.68619
rclavicle -2.5842e-014 -4.77083e-015
rhumerus -50.4291 -14.5591 -63.6167
rradius 35.3146
rwrist 14.0582
rhand -27.2166 -20.2257
rfingers 7.12502
rthumb -0.629335 -410.205
lclavicle -2.5842e-014 -4.77083e-015
lhumerus -38.7467 -12.9086 93.9024
lradius 53.7635
lwrist 17.8103
lhand -9.47726 12.08
lfingers 7.12502
lthumb 16.487 41.3994
rfemur -21.078 -3.34493 19.7055
rtibia 39.495
rfoot -24.209 -22.2862
rtoes 12.7098
lfemur -40.3614 -4.66503 -2.61651
ltibia 38.1845
lfoot -19.2775 -0.871865
ltoes -27.8156
826
root 17.4346 16.4157 21.8044 -5.60391 251.526 16.5085
lowerback 2.83367 1.66666 8.37374
upperback 2.38485 2.20163 3.29792
thorax 1.07828 1.11835 -1.3133
lowerneck -7.78554 3.12533 5.7764
upperneck 14.1303 4.67593 -9.43243
head 5.89948 1.83416 -3.59887
rclavicle -1.70955e-014 -1.19271e-014
rhumerus -50.4722 -14.3504 -64.6736
rradius 35.8437
rwrist 13.3793
rhand -28.2741 -20.7853
rfingers 7.12502
rthumb -1.65067 -410.759
lclavicle -1.70955e-014 -1.19271e-014
lhumerus -38.4392 -12.9254 93.8895
lradius 53.5384
lwrist 17.5792
lhand -9.41962 12.2375
lfingers 7.12502
lthumb 16.5425 41.5524
rfemur -20.2616 -3.80522 20.269
rtibia 38.8903
rfoot -24.2904 -23.159
rtoes 13.1021
lfemur -40.8899 -3.46674 -3.03962
ltibia 38.3034
lfoot -18.7162 0.00838867
ltoes -27.3581
827
root 17.4006 16.4205 21.8146 -8.74638 253.524 19.6597
lowerback 2.79889 1.69896 8.45322
upperback 2.38112 2.24395 3.32945
thorax 1.09978 1.14159 -1.32371
lowerneck -7.80108 2.93743 5.63324
upperneck 14.2122 4.41532 -9.22002
head 5.89876 1.71525 -3.52793
rclavicle -9.93923e-016 -5.96354e-014
rhumerus -50.4844 -14.0218 -65.729
rradius 36.3715
rwrist 12.7554
rhand -29.4424 -21.4567
rfingers 7.12502
rthumb -2.77893 -411.418
lclavicle -9.93923e-016 -5.96354e-014
lhumerus -38.1662 -12.8291 93.8696
lradius 53.3409
lwrist 17.2819
lhand -9.36232 12.3978
lfingers 7.12502
lthumb 16.5976 41.708
rfemur -19.4538 -4.50139 20.7712
rtibia 38.2702
rfoot -24.256 -24.0001
rtoes 12.9227
lfemur -41.3844 -2.03947 -3.62278
ltibia 38.4786
lfoot -18.0924 1.00031
ltoes -26.7932
828
root 17.362 16.4248 21.8249 -12.3803 255.343 23.2937
lowerback 2.74775 1.76768 8.47934
upperback 2.37427 2.33339 3.34224
thorax 1.12952 1.18852 -1.32394
lowerneck -7.81283 2.74892 5.50518
upperneck 14.2871 4.15564 -9.03703
head 5.89719 1.59564 -3.46879
rclavicle -2.60408e-014 -5.32743e-014
rhumerus -50.4776 -13.5918 -66.7712
rradius 36.9016
rwrist 12.2187
rhand -30.6297 -22.2408
rfingers 7.12502
rthumb -3.92553 -412.184
lclavicle -2.60408e-014 -5.32743e-014
lhumerus -37.9523 -12.655 93.847
lradius 53.2031
lwrist 16.9696
lhand -9.3556 12.5568
lfingers 7.12502
lthumb 16.6041 41.8665
rfemur -18.6517 -5.3856 21.2068
rtibia 37.6372
rfoot -24.0952 -24.8077
rtoes 12.1835
lfemur -41.8534 -0.382069 -4.36848
ltibia 38.7051
lfoot -17.4165 2.04835
ltoes -26.109
829
root 17.3189 16.4291 21.835 -16.5897 256.989 27.4937
lowerback 2.67734 1.86622 8.43703
upperback 2.36656 2.46046 3.33863
thorax 1.16973 1.25426 -1.30291
lowerneck -7.81958 2.56318 5.39912
upperneck 14.3502 3.90078 -8.88529
head 5.89326 1.47762 -3.42281
rclavicle 5.36719e-015 -7.95139e-016
rhumerus -50.4574 -13.0731 -67.7861
rradius 37.441
rwrist 11.7792
rhand -31.7587 -23.057
rfingers 7.12502
rthumb -5.01574 -412.978
lclavicle 5.36719e-015 -7.95139e-016
lhumerus -37.8079 -12.4137 93.8163
lradius 53.141
lwrist 16.6854
lhand -9.37972 12.6982
lfingers 7.12502
lthumb 16.5809 42.0098
rfemur -17.8494 -6.3989 21.5693
rtibia 36.9947
rfoot -23.8337 -25.5581
rtoes 11.0042
lfemur -42.3082 1.4819 -5.27372
ltibia 38.9806
lfoot -16.7087 3.1021
ltoes -25.2314
830
root 17.2716 16.4325 21.8451 -21.6178 258.466 32.5126
lowerback 2.58948 1.98509 8.34821
upperback 2.35243 2.61302 3.33041
thorax 1.21282 1.3323 -1.26041
lowerneck -7.8203 2.38209 5.30272
upperneck 14.4026 3.65324 -8.75233
head 5.88668 1.36264 -3.38372
rclavicle -4.77083e-015 -2.70347e-014
rhumerus -50.4281 -12.4676 -68.7578
rradius 37.9886
rwrist 11.4346
rhand -32.7829 -23.8369
rfingers 7.12502
rthumb -6.00461 -413.732
lclavicle -4.77083e-015 -2.70347e-014
lhumerus -37.7445 -12.1211 93.7906
lradius 53.1607
lwrist 16.4968
lhand -9.49198 12.8253
lfingers 7.12502
lthumb 16.4728 42.1459
rfemur -17.0513 -7.47711 21.8857
rtibia 36.3479
rfoot -23.5169 -26.2356
rtoes 9.525
lfemur -42.7802 3.54794 -6.31671
ltibia 39.3103
lfoot -16.0022 4.12431
ltoes -24.2032
831
root 17.22 16.4348 21.8546 -27.7685 259.768 38.6559
lowerback 2.48806 2.11828 8.22543
upperback 2.33056 2.78365 3.32291
thorax 1.25466 1.41875 -1.19783
lowerneck -7.82147 2.207 5.22097
upperneck 14.4477 3.4135 -8.63223
head 5.87953 1.25146 -3.35041
rclavicle -2.36554e-014 -4.6118e-014
rhumerus -50.4002 -11.8188 -69.6563
rradius 38.5636
rwrist 11.1575
rhand -33.6145 -24.5291
rfingers 7.12502
rthumb -6.8074 -414.4
lclavicle -2.36554e-014 -4.6118e-014
lhumerus -37.7587 -11.8028 93.7704
lradius 53.2556
lwrist 16.4378
lhand -9.67476 12.9268
lfingers 7.12502
lthumb 16.2968 42.262
rfemur -16.2531 -8.555 22.1792
rtibia 35.7032
rfoot -23.2003 -26.8358
rtoes 7.95034
lfemur -43.2889 5.77688 -7.46443
ltibia 39.6997
lfoot -15.3209 5.0809
ltoes -22.9738
832
root 17.1643 16.4351 21.8639 -35.4601 260.872 46.344
lowerback 2.37426 2.25248 8.09854
upperback 2.29936 2.95495 3.32215
thorax 1.29257 1.50497 -1.12528
lowerneck -7.83282 2.04517 5.15979
upperneck 14.4938 3.19057 -8.52309
head 5.87669 1.14857 -3.32261
rclavicle 2.62396e-014 5.56597e-015
rhumerus -50.3752 -11.1369 -70.4817
rradius 39.1608
rwrist 10.9406
rhand -34.2645 -25.0482
rfingers 7.12502
rthumb -7.43488 -414.898
lclavicle 2.62396e-014 5.56597e-015
lhumerus -37.8456 -11.467 93.753
lradius 53.4152
lwrist 16.5211
lhand -9.92006 13.0053
lfingers 7.12502
lthumb 16.0606 42.3597
rfemur -15.4527 -9.57697 22.4773
rtibia 35.0687
rfoot -22.9529 -27.3597
rtoes 6.48241
lfemur -43.8526 8.11222 -8.67372
ltibia 40.1548
lfoot -14.6894 5.96654
ltoes -21.5139
833
root 17.1048 16.4332 21.8735 -44.9475 261.745 55.8349
lowerback 2.24884 2.3808 7.96948
upperback 2.25509 3.11835 3.32675
thorax 1.32169 1.5866 -1.04539
lowerneck -7.85284 1.89414 5.09955
upperneck 14.5386 2.98086 -8.40554
head 5.87626 1.05269 -3.29113
rclavicle 1.33186e-014 7.95139e-016
rhumerus -50.3572 -10.4782 -71.2036
rradius 39.7706
rwrist 10.8054
rhand -34.7467 -25.3787
rfingers 7.12502
rthumb -7.90034 -415.211
lclavicle 1.33186e-014 7.95139e-016
lhumerus -37.9966 -11.1303 93.7382
lradius 53.6206
lwrist 16.7222
lhand -10.2102 13.0373
lfingers 7.12502
lthumb 15.7812 42.414
rfemur -14.6531 -10.4934 22.7764
rtibia 34.4508
rfoot -22.8332 -27.8261
rtoes 5.34794
lfemur -44.4834 10.4848 -9.92475
ltibia 40.6724
lfoot -14.1303 6.7831
ltoes -19.725
834
root 17.0416 16.4281 21.884 -56.3861 262.315 67.2819
lowerback 2.11477 2.4931 7.87061
upperback 2.19995 3.26054 3.33667
thorax 1.34369 1.65744 -0.976065
lowerneck -7.89063 1.76015 5.05453
upperneck 14.584 2.7907 -8.27814
head 5.88099 0.967652 -3.25744
rclavicle 1.17283e-014 -4.77083e-015
rhumerus -50.3424 -9.8632 -71.8291
rradius 40.3916
rwrist 10.7174
rhand -35.0875 -25.5072
rfingers 7.12502
rthumb -8.22922 -415.327
lclavicle 1.17283e-014 -4.77083e-015
lhumerus -38.1982 -10.7972 93.7116
lradius 53.858
lwrist 17.0076
lhand -10.4646 13.0318
lfingers 7.12502
lthumb 15.5362 42.4277
rfemur -13.8491 -11.2769 23.1022
rtibia 33.8562
rfoot -22.8894 -28.2663
rtoes 4.60983
lfemur -45.1735 12.8114 -11.1611
ltibia 41.2415
lfoot -13.6565 7.56846
ltoes -17.6983
